<svg width="104" height="80" viewBox="0 0 104 80" fill="none" xmlns="http://www.w3.org/2000/svg">
<path d="M103.625 21.7861H0.668945V70.0005H103.625V21.7861Z" fill="#E6E6E6"/>
<path d="M100.681 25.9199H3.61279V66.1466H100.681V25.9199Z" fill="white"/>
<path d="M103.581 19H0.625V23.3166H103.581V19Z" fill="#434352"/>
<path d="M3.87562 21.7964C4.32335 21.7964 4.68631 21.4382 4.68631 20.9963C4.68631 20.5545 4.32335 20.1963 3.87562 20.1963C3.4279 20.1963 3.06494 20.5545 3.06494 20.9963C3.06494 21.4382 3.4279 21.7964 3.87562 21.7964Z" fill="white"/>
<path d="M6.95228 21.7964C7.40001 21.7964 7.76297 21.4382 7.76297 20.9963C7.76297 20.5545 7.40001 20.1963 6.95228 20.1963C6.50456 20.1963 6.1416 20.5545 6.1416 20.9963C6.1416 21.4382 6.50456 21.7964 6.95228 21.7964Z" fill="white"/>
<path d="M10.0299 21.7964C10.4776 21.7964 10.8406 21.4382 10.8406 20.9963C10.8406 20.5545 10.4776 20.1963 10.0299 20.1963C9.58219 20.1963 9.21924 20.5545 9.21924 20.9963C9.21924 21.4382 9.58219 21.7964 10.0299 21.7964Z" fill="white"/>
<path d="M47.029 35.4668C46.9248 35.4668 46.8249 35.5076 46.7513 35.5803C46.6776 35.653 46.6362 35.7516 46.6362 35.8544C46.6362 35.9572 46.6776 36.0558 46.7513 36.1285C46.8249 36.2012 46.9248 36.242 47.029 36.242H68.5796C68.6838 36.242 68.7837 36.2012 68.8574 36.1285C68.931 36.0558 68.9724 35.9572 68.9724 35.8544C68.9724 35.7516 68.931 35.653 68.8574 35.5803C68.7837 35.5076 68.6838 35.4668 68.5796 35.4668H47.029Z" fill="#E6E6E6"/>
<path d="M47.0291 37.793C46.9251 37.7932 46.8254 37.8341 46.7519 37.9068C46.6785 37.9795 46.6372 38.0779 46.6372 38.1806C46.6372 38.2832 46.6785 38.3817 46.7519 38.4543C46.8254 38.527 46.9251 38.5679 47.0291 38.5682H58.0312C58.1352 38.5679 58.2349 38.527 58.3083 38.4543C58.3818 38.3817 58.4231 38.2832 58.4231 38.1806C58.4231 38.0779 58.3818 37.9795 58.3083 37.9068C58.2349 37.8341 58.1352 37.7932 58.0312 37.793H47.0291Z" fill="#E6E6E6"/>
<path d="M46.4865 49.0498C46.3823 49.0498 46.2824 49.0906 46.2088 49.1633C46.1351 49.236 46.0938 49.3346 46.0938 49.4374C46.0938 49.5402 46.1351 49.6388 46.2088 49.7115C46.2824 49.7842 46.3823 49.825 46.4865 49.825H86.8941C86.9983 49.825 87.0982 49.7842 87.1718 49.7115C87.2455 49.6388 87.2868 49.5402 87.2868 49.4374C87.2868 49.3346 87.2455 49.236 87.1718 49.1633C87.0982 49.0906 86.9983 49.0498 86.8941 49.0498H46.4865Z" fill="#E6E6E6"/>
<path d="M46.4866 51.376C46.3826 51.3762 46.2829 51.4171 46.2095 51.4898C46.136 51.5625 46.0947 51.6609 46.0947 51.7636C46.0947 51.8662 46.136 51.9647 46.2095 52.0374C46.2829 52.11 46.3826 52.151 46.4866 52.1512H76.3456C76.4496 52.151 76.5493 52.11 76.6228 52.0374C76.6962 51.9647 76.7375 51.8662 76.7375 51.7636C76.7375 51.6609 76.6962 51.5625 76.6228 51.4898C76.5493 51.4171 76.4496 51.3762 76.3456 51.376H46.4866Z" fill="#E6E6E6"/>
<path d="M46.4866 53.6484C46.3826 53.6487 46.2829 53.6896 46.2095 53.7623C46.136 53.8349 46.0947 53.9334 46.0947 54.036C46.0947 54.1387 46.136 54.2371 46.2095 54.3098C46.2829 54.3825 46.3826 54.4234 46.4866 54.4236H86.8942C86.9982 54.4234 87.0979 54.3825 87.1714 54.3098C87.2449 54.2371 87.2861 54.1387 87.2861 54.036C87.2861 53.9334 87.2449 53.8349 87.1714 53.7623C87.0979 53.6896 86.9982 53.6487 86.8942 53.6484H46.4866Z" fill="#E6E6E6"/>
<path d="M46.4866 55.9746C46.3826 55.9748 46.2829 56.0158 46.2095 56.0884C46.136 56.1611 46.0947 56.2596 46.0947 56.3622C46.0947 56.4649 46.136 56.5633 46.2095 56.636C46.2829 56.7087 46.3826 56.7496 46.4866 56.7498H76.3456C76.4496 56.7496 76.5493 56.7087 76.6228 56.636C76.6962 56.5633 76.7375 56.4649 76.7375 56.3622C76.7375 56.2596 76.6962 56.1611 76.6228 56.0884C76.5493 56.0158 76.4496 55.9748 76.3456 55.9746H46.4866Z" fill="#E6E6E6"/>
<path d="M25.3613 50.6222C27.25 50.6222 28.7811 49.1111 28.7811 47.2471C28.7811 45.3831 27.25 43.8721 25.3613 43.8721C23.4725 43.8721 21.9414 45.3831 21.9414 47.2471C21.9414 49.1111 23.4725 50.6222 25.3613 50.6222Z" fill="#F3EEC2"/>
<path d="M24.2781 44.5474C24.2781 44.5474 25.8741 44.9693 26.7005 45.138C27.527 45.3068 27.4415 44.8287 27.4415 44.8287C27.4415 44.8287 28.5245 44.9693 28.4675 44.8568C28.4105 44.7443 28.9234 44.1536 28.325 43.4786C27.7265 42.8036 27.8975 42.2974 27.8975 42.2974H27.3845L27.242 42.1005H26.444C26.444 42.1005 25.5618 41.337 23.9944 41.562C22.4269 41.787 20.5732 42.3817 20.4022 43.3099C20.3791 43.4358 20.3485 43.5756 20.3131 43.7234C19.8845 45.5092 20.7952 47.18 21.7397 48.7609C21.9718 49.1494 23.0947 49.9966 23.066 49.4153C23.0372 48.8341 22.0552 47.5287 22.7392 47.4443C23.4231 47.36 24.5916 45.6443 24.2781 44.5474Z" fill="#2F2E41"/>
<path d="M23.4211 58.1584C22.7609 58.1063 22.1063 58.0002 21.4639 57.8411L21.4999 57.168L21.7993 51.8164L21.802 51.7754H27.8262L28.7716 56.7029L28.8991 57.3677C28.6497 57.4635 28.3973 57.5538 28.1396 57.6331C28.1368 57.6331 28.1368 57.6359 28.134 57.6359C27.7764 57.7453 27.4132 57.8411 27.0472 57.9204C26.5605 58.024 26.0681 58.0989 25.5724 58.1447C25.1892 58.1823 24.8043 58.2005 24.4192 58.1995C24.0865 58.1995 23.751 58.1858 23.4211 58.1584Z" fill="#434352"/>
<path d="M19.5482 57.2061C19.2988 57.0994 19.0575 56.9845 18.8191 56.8641L18.7165 56.8121C18.6472 56.7766 18.5752 56.7383 18.5059 56.7C18.4116 56.648 18.3201 56.596 18.2314 56.544C18.1454 56.4948 18.0568 56.4428 17.9708 56.3908C17.9653 56.3881 17.9626 56.3853 17.957 56.3853C17.6576 56.1965 17.3637 56.0023 17.0809 55.7916C17.0338 55.7561 16.9867 55.7205 16.9395 55.6849L16.8896 54.897L16.9617 54.8532L21.7994 51.8162L21.8659 51.7752L21.8714 51.7725L22.5534 51.7752V54.2814C22.9388 54.8313 23.1994 55.9831 23.3602 57.4907C23.3824 57.7068 23.4017 57.9284 23.4212 58.1582C22.761 58.1061 22.1063 57.9999 21.4639 57.8409C21.3946 57.8272 21.328 57.8108 21.2587 57.7916C20.8547 57.6873 20.4568 57.5612 20.0667 57.414C19.9474 57.3703 19.831 57.3238 19.7146 57.2773L19.7035 57.2718C19.6535 57.2499 19.5982 57.228 19.5482 57.2061Z" fill="#2F2E41"/>
<path d="M18.5061 56.7005C18.4117 56.6485 18.3202 56.5965 18.2316 56.5445C18.1456 56.4953 18.0569 56.4433 17.971 56.3913C17.9654 56.3886 17.9627 56.3858 17.9572 56.3858C17.6578 56.197 17.3639 56.0028 17.0811 55.7921C17.034 55.7566 16.9868 55.721 16.9396 55.6854C16.9176 55.6663 16.8954 55.6499 16.8703 55.6307C16.693 55.4966 16.5211 55.3571 16.3547 55.2094C16.3465 55.2039 16.3409 55.1957 16.3325 55.1902C16.5005 55.0627 16.6889 54.9638 16.8898 54.8975L17.0867 54.9549L18.4895 55.3708L18.4977 55.9317L18.5061 56.7005Z" fill="#2F2E41"/>
<path d="M30.3186 56.7087C30.2354 56.7524 30.1523 56.7962 30.0692 56.8372C30.0497 56.8482 30.0332 56.8564 30.0165 56.8646C29.9055 56.9193 29.7975 56.974 29.6866 57.026C29.6838 57.0288 29.6782 57.0288 29.6782 57.0315C29.6727 57.0342 29.6644 57.037 29.6589 57.0397C29.4094 57.1574 29.1571 57.2668 28.8992 57.368C28.6497 57.4638 28.3974 57.5541 28.1397 57.6334C28.1368 57.6334 28.1368 57.6361 28.1341 57.6361C27.7765 57.7456 27.4133 57.8413 27.0472 57.9207C27.0431 57.6959 27.0731 57.4719 27.136 57.2558L27.1388 57.2175L27.3773 53.409L27.0583 51.7757L27.9733 51.6416L33.005 54.3147C33.005 54.3147 32.4505 54.8619 30.1745 56.0274C29.9732 56.1305 30.2687 56.4734 30.3186 56.7087Z" fill="#2F2E41"/>
<path d="M25.5118 57.4888C25.1513 57.5216 24.7854 57.538 24.4195 57.538C24.0646 57.538 23.7125 57.5243 23.3604 57.4915C23.3826 57.7077 23.402 57.9293 23.4215 58.1591C23.7513 58.1865 24.0868 58.2001 24.4195 58.2001C24.8046 58.2012 25.1895 58.1829 25.5727 58.1454C26.0684 58.0996 26.5609 58.0247 27.0475 57.9211C27.0434 57.6963 27.0733 57.4722 27.1363 57.2562L27.139 57.2179C26.6039 57.3465 26.06 57.437 25.5118 57.4888ZM35.9882 42.1345C35.4024 40.4737 34.4565 38.959 33.2166 37.6961C31.9767 36.4331 30.4725 35.4523 28.8091 34.822C27.1456 34.1916 25.3628 33.927 23.5851 34.0465C21.8073 34.166 20.0774 34.6668 18.5159 35.5139C16.9544 36.361 15.5989 37.534 14.5439 38.9513C13.489 40.3685 12.76 41.9957 12.4078 43.7195C12.0555 45.4434 12.0886 47.2223 12.5045 48.9322C12.9205 50.6422 13.7094 52.242 14.8162 53.6201C14.9271 53.7569 15.0408 53.8937 15.1572 54.025C15.1683 54.036 15.1738 54.0442 15.1821 54.0524C15.4683 54.3781 15.7728 54.6878 16.0942 54.9799C16.1719 55.051 16.2522 55.1222 16.3326 55.1906C16.341 55.196 16.3465 55.2042 16.3548 55.2097C16.5211 55.3574 16.6931 55.497 16.8704 55.631C16.8954 55.6502 16.9176 55.6666 16.9397 55.6858C16.9869 55.7213 17.0341 55.7569 17.0812 55.7925C17.3639 56.0031 17.6578 56.1974 17.9572 56.3862C17.9628 56.3862 17.9655 56.3889 17.971 56.3916C18.057 56.4436 18.1457 56.4956 18.2316 56.5449C18.3204 56.5968 18.4119 56.6488 18.5061 56.7008C18.5755 56.7391 18.6475 56.7774 18.7168 56.813L18.8194 56.865C19.0578 56.9853 19.299 57.1003 19.5485 57.207C19.5984 57.2289 19.6538 57.2507 19.7037 57.2726L19.7148 57.2781C19.8312 57.3246 19.9477 57.3711 20.0669 57.4149C20.457 57.5621 20.8549 57.6881 21.259 57.7925C21.3283 57.8116 21.3949 57.828 21.4642 57.8417C22.1066 58.0008 22.7613 58.107 23.4215 58.1591C23.7513 58.1865 24.0868 58.2001 24.4195 58.2001C24.8046 58.2012 25.1895 58.1829 25.5727 58.1454C26.0684 58.0996 26.5609 58.0247 27.0475 57.9211C27.4135 57.8417 27.7767 57.7459 28.1343 57.6365C28.1371 57.6365 28.1371 57.6338 28.1399 57.6338C28.3976 57.5544 28.65 57.4641 28.8994 57.3684C29.1573 57.2672 29.4096 57.1577 29.6591 57.0401C29.6647 57.0373 29.6729 57.0346 29.6785 57.0319C29.6785 57.0291 29.684 57.0291 29.6869 57.0264C29.7977 56.9744 29.9058 56.9197 30.0168 56.865C30.0334 56.8568 30.0499 56.8486 30.0694 56.8376C30.1525 56.7966 30.2356 56.7528 30.3189 56.709C30.3244 56.7063 30.3271 56.7035 30.3327 56.7008C30.5517 56.5804 30.768 56.4546 30.9815 56.3205C31.0397 56.2849 31.0979 56.2494 31.1561 56.2083C31.2421 56.1563 31.3252 56.0989 31.4056 56.0414C31.5138 55.9676 31.6218 55.891 31.7272 55.8116C31.7623 55.7894 31.7956 55.7647 31.827 55.7378C32.0849 55.5462 32.3344 55.3438 32.5727 55.1304C34.3807 53.5405 35.6703 51.4571 36.2782 49.1438C36.8862 46.8305 36.7853 44.3911 35.9882 42.1345ZM32.3648 54.4245C32.0647 54.7031 31.7501 54.9661 31.4223 55.2124C31.3503 55.2671 31.2753 55.3219 31.2006 55.3711C31.1284 55.4258 31.0564 55.4778 30.9815 55.5271C30.9178 55.5709 30.854 55.6146 30.7874 55.6557C30.7819 55.6611 30.7736 55.6639 30.7681 55.6693C30.7208 55.7022 30.671 55.7323 30.6239 55.7624C30.4769 55.8527 30.3245 55.9429 30.1748 56.0278C30.1387 56.0469 30.1054 56.0688 30.0694 56.0879C30.0499 56.0989 30.0306 56.1098 30.0084 56.1208C29.9253 56.1673 29.842 56.2083 29.7589 56.2521C29.7478 56.2603 29.734 56.263 29.7229 56.2713C29.7187 56.2719 29.7148 56.2738 29.7118 56.2767C29.6536 56.3068 29.5954 56.3342 29.5372 56.3615C29.4872 56.3862 29.4401 56.4108 29.3902 56.4327C29.1878 56.5284 28.9799 56.6187 28.772 56.7035C28.5529 56.7911 28.3312 56.8704 28.1066 56.9443C28.0511 56.9635 27.9929 56.9853 27.9347 57.0018C27.6713 57.0838 27.408 57.1577 27.139 57.2179C26.6039 57.3465 26.06 57.437 25.5118 57.4888C25.1513 57.5216 24.7854 57.538 24.4195 57.538C24.0646 57.538 23.7125 57.5243 23.3604 57.4915C22.7324 57.4348 22.1102 57.3268 21.5002 57.1687C21.478 57.1632 21.4531 57.1577 21.4309 57.1522C20.9306 57.0235 20.4404 56.8589 19.9643 56.6598C19.9394 56.6488 19.9117 56.6406 19.8895 56.6297C19.8617 56.6187 19.8368 56.6105 19.8146 56.5996C19.7869 56.5886 19.762 56.5777 19.7371 56.5667C19.5291 56.4765 19.3268 56.3779 19.1244 56.2767L19.03 56.2275C18.8499 56.1345 18.6724 56.0387 18.4978 55.932C18.4369 55.8992 18.3731 55.8609 18.3121 55.8226C18.2427 55.7815 18.1734 55.7377 18.1068 55.694C18.0903 55.683 18.0737 55.6721 18.057 55.6611C17.9018 55.5572 17.7438 55.4532 17.5941 55.341C17.4888 55.2644 17.3861 55.1905 17.2835 55.1112C17.2169 55.062 17.1505 55.01 17.0867 54.9553C17.0452 54.9252 17.0036 54.8896 16.9619 54.854C16.9066 54.8075 16.8511 54.761 16.7957 54.7118C16.7097 54.6434 16.6293 54.5667 16.5516 54.4956C16.2395 54.2117 15.9442 53.9102 15.6673 53.5927C15.5731 53.4888 15.4843 53.3848 15.3984 53.2754C15.3784 53.2538 15.3599 53.231 15.3429 53.207C13.9472 51.4681 13.0945 49.366 12.8887 47.1571C12.683 44.9481 13.1331 42.7278 14.1842 40.767C15.2353 38.8062 16.8419 37.1897 18.8081 36.1147C20.7742 35.0397 23.0149 34.5527 25.2568 34.713C27.4986 34.8734 29.6447 35.6742 31.4332 37.0177C33.2218 38.3613 34.5754 40.1895 35.329 42.2794C36.0827 44.3693 36.2037 46.6305 35.6773 48.787C35.151 50.9436 34 52.9025 32.3648 54.4245Z" fill="#3F3D56"/>
</svg>
