<svg width="102" height="80" viewBox="0 0 102 80" fill="none" xmlns="http://www.w3.org/2000/svg">
<g clip-path="url(#clip0_1_33448)">
<path d="M101.75 56.602C101.752 57.0105 101.592 57.4032 101.306 57.6936C101.019 57.984 100.63 58.1483 100.222 58.1505H33.0106C32.8089 58.1494 32.6094 58.1085 32.4235 58.0301C32.2376 57.9518 32.0689 57.8374 31.9271 57.6936C31.7852 57.5498 31.673 57.3794 31.5968 57.1921C31.5206 57.0048 31.4819 56.8043 31.4829 56.602V10.5485C31.4808 10.1399 31.6405 9.74727 31.927 9.45688C32.2135 9.16648 32.6032 9.00214 33.0105 9H100.222C100.424 9.00105 100.624 9.04194 100.809 9.12032C100.995 9.19871 101.164 9.31306 101.306 9.45684C101.448 9.60063 101.56 9.77104 101.636 9.95833C101.712 10.1456 101.751 10.3461 101.75 10.5484V56.602Z" fill="#E6E6E6"/>
<path d="M100.957 55.8476C100.957 56.2446 100.8 56.6255 100.52 56.9063C100.24 57.1871 99.8604 57.3448 99.4645 57.3448H33.8144C33.4185 57.3448 33.0389 57.1871 32.7589 56.9063C32.479 56.6255 32.3218 56.2446 32.3218 55.8476V11.3234C32.3218 10.9263 32.479 10.5455 32.7589 10.2647C33.0389 9.98392 33.4185 9.82617 33.8144 9.82617H99.4675C99.8629 9.82697 100.242 9.98507 100.521 10.2658C100.8 10.5465 100.957 10.9269 100.957 11.3234V55.8476Z" fill="white"/>
<path d="M35.8305 11.7598H97.5185C97.7534 11.7598 97.9788 11.8534 98.1449 12.0201C98.3111 12.1867 98.4044 12.4128 98.4044 12.6485V54.3508C98.4044 54.5865 98.3111 54.8126 98.1449 54.9792C97.9788 55.1459 97.7534 55.2395 97.5185 55.2395H35.8305C35.5956 55.2395 35.3702 55.1459 35.2041 54.9792C35.0379 54.8126 34.9446 54.5865 34.9446 54.3508V12.6485C34.9446 12.4128 35.0379 12.1867 35.2041 12.0201C35.3702 11.8534 35.5956 11.7598 35.8305 11.7598Z" fill="#E6E6E6"/>
<path d="M36.6113 12.7598H96.6705C96.9055 12.7598 97.1308 12.8534 97.2969 13.0201C97.4631 13.1867 97.5564 13.4128 97.5564 13.6485V53.1255C97.5564 53.3612 97.4631 53.5873 97.2969 53.7539C97.1308 53.9206 96.9055 54.0142 96.6705 54.0142H36.6113C36.3763 54.0142 36.151 53.9206 35.9848 53.7539C35.8187 53.5873 35.7253 53.3612 35.7253 53.1255V13.6485C35.7253 13.4128 35.8187 13.1867 35.9848 13.0201C36.151 12.8534 36.3763 12.7598 36.6113 12.7598Z" fill="white"/>
<path d="M79.017 40.1837C78.7806 40.1835 78.5469 40.1335 78.331 40.037C78.2807 40.0146 78.2328 39.9873 78.188 39.9555L73.8231 36.8735C73.6017 36.7171 73.4211 36.5097 73.2964 36.2687C73.1716 36.0277 73.1065 35.7601 73.1064 35.4886V31.2853C73.1065 31.0138 73.1716 30.7462 73.2964 30.5052C73.4211 30.2642 73.6017 30.0568 73.8231 29.9005L78.188 26.8184C78.2328 26.7866 78.2807 26.7593 78.331 26.7369C78.5881 26.6222 78.8697 26.5738 79.1502 26.5961C79.4307 26.6184 79.7012 26.7106 79.9371 26.8644C80.1731 27.0181 80.367 27.2286 80.5012 27.4767C80.6354 27.7248 80.7057 28.0026 80.7057 28.2848V38.4891C80.7057 38.9384 80.5278 39.3693 80.2111 39.687C79.8944 40.0047 79.4649 40.1831 79.017 40.1831L79.017 40.1837Z" fill="#3F3D56"/>
<path d="M69.2485 41.0098H57.0747C54.591 41.0077 52.5782 39.3973 52.5757 37.41V29.3634C52.5782 27.3762 54.591 25.7657 57.0747 25.7637H69.2802C71.7462 25.766 73.7446 27.3649 73.7475 29.338V37.41C73.7449 39.3973 71.7322 41.0077 69.2485 41.0098Z" fill="#3F3D56"/>
<path d="M90.9346 51.4757C92.9342 51.4757 94.5552 49.8497 94.5552 47.8438C94.5552 45.838 92.9342 44.2119 90.9346 44.2119C88.935 44.2119 87.314 45.838 87.314 47.8438C87.314 49.8497 88.935 51.4757 90.9346 51.4757Z" fill="#E6E6E6"/>
<path d="M92.8148 47.7782L89.9288 46.1068C89.9174 46.1002 89.9045 46.0967 89.8913 46.0967C89.8782 46.0967 89.8653 46.1002 89.8539 46.1068C89.8425 46.1134 89.833 46.1228 89.8265 46.1343C89.8199 46.1457 89.8164 46.1587 89.8164 46.1719V49.5147C89.8164 49.5279 89.8199 49.5409 89.8265 49.5523C89.833 49.5638 89.8425 49.5732 89.8539 49.5798C89.8653 49.5864 89.8782 49.5899 89.8913 49.5899C89.9045 49.5899 89.9174 49.5864 89.9288 49.5798L92.8148 47.9084C92.8262 47.9018 92.8357 47.8923 92.8423 47.8809C92.8488 47.8695 92.8523 47.8565 92.8523 47.8433C92.8523 47.8301 92.8488 47.8171 92.8423 47.8057C92.8357 47.7943 92.8262 47.7848 92.8148 47.7782L89.9288 46.1068C89.9174 46.1002 89.9045 46.0967 89.8913 46.0967C89.8782 46.0967 89.8653 46.1002 89.8539 46.1068C89.8425 46.1134 89.833 46.1228 89.8265 46.1343C89.8199 46.1457 89.8164 46.1587 89.8164 46.1719V49.5147C89.8164 49.5279 89.8199 49.5409 89.8265 49.5523C89.833 49.5638 89.8425 49.5732 89.8539 49.5798C89.8653 49.5864 89.8782 49.5899 89.8913 49.5899C89.9045 49.5899 89.9174 49.5864 89.9288 49.5798L92.8148 47.9084C92.8262 47.9018 92.8357 47.8923 92.8423 47.8809C92.8488 47.8695 92.8523 47.8565 92.8523 47.8433C92.8523 47.8301 92.8488 47.8171 92.8423 47.8057C92.8357 47.7943 92.8262 47.7848 92.8148 47.7782Z" fill="white"/>
<path d="M86.2334 62.1254C86.2356 62.534 86.0758 62.9266 85.7893 63.217C85.5029 63.5074 85.1131 63.6718 84.7058 63.6739H17.494C17.2923 63.6728 17.0928 63.632 16.9069 63.5536C16.721 63.4752 16.5523 63.3608 16.4105 63.2171C16.2686 63.0733 16.1564 62.9029 16.0802 62.7156C16.004 62.5283 15.9653 62.3278 15.9663 62.1255V16.0719C15.9642 15.6634 16.1239 15.2707 16.4104 14.9803C16.6969 14.6899 17.0866 14.5256 17.4939 14.5234H84.7058C84.9075 14.5245 85.1069 14.5654 85.2928 14.6438C85.4788 14.7221 85.6475 14.8365 85.7893 14.9803C85.9312 15.1241 86.0434 15.2945 86.1196 15.4818C86.1958 15.6691 86.2345 15.8696 86.2334 16.0719V62.1254Z" fill="#E6E6E6"/>
<path d="M85.4405 61.371C85.4405 61.7681 85.2833 62.1489 85.0034 62.4297C84.7234 62.7105 84.3438 62.8683 83.9479 62.8683H18.2978C17.9019 62.8683 17.5223 62.7105 17.2423 62.4297C16.9624 62.1489 16.8052 61.7681 16.8052 61.371V16.8469C16.8052 16.4498 16.9624 16.0689 17.2423 15.7881C17.5223 15.5074 17.9019 15.3496 18.2978 15.3496H83.9509C84.3463 15.3504 84.7252 15.5085 85.0044 15.7892C85.2837 16.0699 85.4405 16.4503 85.4405 16.8469V61.371Z" fill="white"/>
<path d="M20.3139 17.2822H82.0019C82.2368 17.2822 82.4622 17.3759 82.6283 17.5425C82.7945 17.7092 82.8878 17.9352 82.8878 18.1709V59.8733C82.8878 60.109 82.7945 60.335 82.6283 60.5017C82.4622 60.6684 82.2368 60.762 82.0019 60.762H20.3139C20.079 60.762 19.8536 60.6684 19.6875 60.5017C19.5213 60.335 19.428 60.109 19.428 59.8733V18.1709C19.428 17.9352 19.5213 17.7092 19.6875 17.5425C19.8536 17.3759 20.079 17.2822 20.3139 17.2822Z" fill="#E6E6E6"/>
<path d="M21.0947 18.2832H81.1539C81.3888 18.2832 81.6142 18.3768 81.7803 18.5435C81.9465 18.7102 82.0398 18.9362 82.0398 19.1719V58.6489C82.0398 58.8846 81.9465 59.1107 81.7803 59.2774C81.6142 59.444 81.3888 59.5377 81.1539 59.5377H21.0947C20.8597 59.5377 20.6344 59.444 20.4682 59.2774C20.3021 59.1107 20.2087 58.8846 20.2087 58.6489V19.1719C20.2087 18.9362 20.3021 18.7102 20.4682 18.5435C20.6344 18.3768 20.8597 18.2832 21.0947 18.2832Z" fill="white"/>
<path d="M63.5009 45.7071C63.2645 45.7069 63.0308 45.657 62.8149 45.5605C62.7646 45.5381 62.7167 45.5108 62.6718 45.4789L58.307 42.3969C58.0856 42.2406 57.905 42.0332 57.7803 41.7922C57.6555 41.5511 57.5904 41.2836 57.5903 41.012V36.8088C57.5904 36.5372 57.6555 36.2697 57.7802 36.0286C57.905 35.7876 58.0856 35.5802 58.307 35.4239L62.6718 32.3419C62.7167 32.31 62.7646 32.2827 62.8148 32.2603C63.072 32.1457 63.3536 32.0973 63.6341 32.1195C63.9146 32.1418 64.1851 32.234 64.421 32.3878C64.657 32.5416 64.8509 32.7521 64.9851 33.0001C65.1193 33.2482 65.1896 33.526 65.1896 33.8083V44.0126C65.1896 44.4618 65.0117 44.8927 64.695 45.2104C64.3783 45.5281 63.9488 45.7066 63.5009 45.7066L63.5009 45.7071Z" fill="#3F3D56"/>
<path d="M53.7321 46.5332H41.5583C39.0747 46.5312 37.0619 44.9207 37.0593 42.9334V34.8869C37.0619 32.8996 39.0747 31.2892 41.5583 31.2871H53.7639C56.2299 31.2894 58.2282 32.8884 58.2311 34.8615V42.9334C58.2286 44.9207 56.2158 46.5312 53.7321 46.5332Z" fill="#3F3D56"/>
<path d="M75.418 56.9992C77.4176 56.9992 79.0386 55.3731 79.0386 53.3673C79.0386 51.3614 77.4176 49.7354 75.418 49.7354C73.4184 49.7354 71.7974 51.3614 71.7974 53.3673C71.7974 55.3731 73.4184 56.9992 75.418 56.9992Z" fill="#E6E6E6"/>
<path d="M77.2982 53.3016L74.4122 51.6302C74.4008 51.6236 74.3879 51.6201 74.3747 51.6201C74.3616 51.6201 74.3487 51.6236 74.3373 51.6302C74.3259 51.6368 74.3164 51.6463 74.3098 51.6577C74.3033 51.6691 74.2998 51.6821 74.2998 51.6953V55.0382C74.2998 55.0514 74.3033 55.0643 74.3098 55.0758C74.3164 55.0872 74.3259 55.0967 74.3373 55.1033C74.3487 55.1099 74.3616 55.1134 74.3747 55.1134C74.3879 55.1134 74.4008 55.1099 74.4122 55.1033L77.2982 53.4318C77.3096 53.4252 77.3191 53.4158 77.3257 53.4043C77.3322 53.3929 77.3357 53.3799 77.3357 53.3667C77.3357 53.3535 77.3322 53.3406 77.3257 53.3292C77.3191 53.3177 77.3096 53.3082 77.2982 53.3016L74.4122 51.6302C74.4008 51.6236 74.3879 51.6201 74.3747 51.6201C74.3616 51.6201 74.3487 51.6236 74.3373 51.6302C74.3259 51.6368 74.3164 51.6463 74.3098 51.6577C74.3033 51.6691 74.2998 51.6821 74.2998 51.6953V55.0382C74.2998 55.0514 74.3033 55.0643 74.3098 55.0758C74.3164 55.0872 74.3259 55.0967 74.3373 55.1033C74.3487 55.1099 74.3616 55.1134 74.3747 55.1134C74.3879 55.1134 74.4008 55.1099 74.4122 55.1033L77.2982 53.4318C77.3096 53.4252 77.3191 53.4158 77.3257 53.4043C77.3322 53.3929 77.3357 53.3799 77.3357 53.3667C77.3357 53.3535 77.3322 53.3406 77.3257 53.3292C77.3191 53.3177 77.3096 53.3082 77.2982 53.3016Z" fill="white"/>
<path d="M71.0171 68.4516C71.0193 68.8601 70.8595 69.2528 70.573 69.5432C70.2866 69.8336 69.8968 69.9979 69.4895 70.0001H2.27765C2.07599 69.999 1.87651 69.9581 1.6906 69.8798C1.5047 69.8014 1.336 69.687 1.19414 69.5432C1.05229 69.3994 0.940058 69.229 0.863855 69.0417C0.787652 68.8545 0.748972 68.6539 0.750021 68.4516V22.3981C0.747891 21.9895 0.907637 21.5969 1.19412 21.3065C1.48059 21.0161 1.87034 20.8517 2.27761 20.8496H69.4895C69.6912 20.8507 69.8906 20.8915 70.0765 20.9699C70.2625 21.0483 70.4311 21.1627 70.573 21.3065C70.7149 21.4502 70.8271 21.6206 70.9033 21.8079C70.9795 21.9952 71.0182 22.1958 71.0171 22.398V68.4516Z" fill="#E6E6E6"/>
<path d="M70.2242 67.6972C70.2242 68.0943 70.067 68.4751 69.7871 68.7559C69.5071 69.0367 69.1275 69.1944 68.7316 69.1944H3.08146C2.6856 69.1944 2.30595 69.0367 2.02604 68.7559C1.74612 68.4751 1.58887 68.0943 1.58887 67.6972V23.173C1.58887 22.7759 1.74612 22.3951 2.02604 22.1143C2.30595 21.8335 2.6856 21.6758 3.08146 21.6758H68.7346C69.13 21.6766 69.5089 21.8347 69.7881 22.1154C70.0674 22.3961 70.2242 22.7765 70.2242 23.173V67.6972Z" fill="white"/>
<path d="M5.09762 23.6094H66.7856C67.0205 23.6094 67.2459 23.703 67.412 23.8697C67.5782 24.0363 67.6715 24.2624 67.6715 24.4981V66.2004C67.6715 66.4361 67.5782 66.6622 67.412 66.8288C67.2459 66.9955 67.0205 67.0891 66.7856 67.0891H5.09762C4.86265 67.0891 4.63731 66.9955 4.47116 66.8288C4.30501 66.6622 4.21167 66.4361 4.21167 66.2004V24.4981C4.21167 24.2624 4.30501 24.0363 4.47116 23.8697C4.63731 23.703 4.86265 23.6094 5.09762 23.6094Z" fill="#E6E6E6"/>
<path d="M5.87862 24.6094H65.9378C66.0542 24.6094 66.1694 24.6324 66.2769 24.677C66.3843 24.7217 66.482 24.7871 66.5643 24.8697C66.6465 24.9522 66.7118 25.0502 66.7563 25.158C66.8008 25.2658 66.8238 25.3814 66.8238 25.4981V64.9751C66.8238 65.0918 66.8008 65.2074 66.7563 65.3152C66.7118 65.423 66.6465 65.521 66.5643 65.6035C66.482 65.6861 66.3843 65.7515 66.2769 65.7962C66.1694 65.8408 66.0542 65.8638 65.9378 65.8638H5.87862C5.64365 65.8638 5.41831 65.7702 5.25216 65.6035C5.08602 65.4369 4.99268 65.2108 4.99268 64.9751V25.4981C4.99268 25.2624 5.08602 25.0363 5.25216 24.8697C5.41831 24.703 5.64365 24.6094 5.87862 24.6094Z" fill="white"/>
<path d="M48.2844 52.0333C48.048 52.0331 47.8142 51.9831 47.5983 51.8866C47.5481 51.8643 47.5002 51.8369 47.4553 51.8051L43.0904 48.7231C42.8691 48.5667 42.6884 48.3593 42.5637 48.1183C42.439 47.8773 42.3738 47.6098 42.3738 47.3382V43.1349C42.3738 42.8634 42.439 42.5958 42.5637 42.3548C42.6884 42.1138 42.8691 41.9064 43.0904 41.7501L47.4553 38.668C47.5002 38.6362 47.5481 38.6089 47.5983 38.5865C47.8554 38.4719 48.137 38.4234 48.4175 38.4457C48.698 38.468 48.9685 38.5602 49.2045 38.714C49.4404 38.8678 49.6343 39.0782 49.7685 39.3263C49.9028 39.5744 49.9731 39.8522 49.9731 40.1344V50.3387C49.9731 50.788 49.7952 51.2189 49.4785 51.5366C49.1618 51.8543 48.7322 52.0327 48.2843 52.0327L48.2844 52.0333Z" fill="#434352"/>
<path d="M38.5158 52.8594H26.342C23.8584 52.8573 21.8456 51.2469 21.843 49.2596V41.2131C21.8456 39.2258 23.8584 37.6153 26.342 37.6133H38.5476C41.0136 37.6156 43.0119 39.2145 43.0148 41.1876V49.2596C43.0123 51.2469 40.9995 52.8573 38.5158 52.8594Z" fill="#434352"/>
<path d="M60.2017 63.3254C62.2013 63.3254 63.8223 61.6993 63.8223 59.6934C63.8223 57.6876 62.2013 56.0615 60.2017 56.0615C58.2021 56.0615 56.5811 57.6876 56.5811 59.6934C56.5811 61.6993 58.2021 63.3254 60.2017 63.3254Z" fill="#3F3D56"/>
<path d="M62.0819 59.6278L59.1959 57.9564C59.1845 57.9498 59.1716 57.9463 59.1584 57.9463C59.1453 57.9463 59.1324 57.9498 59.121 57.9564C59.1096 57.963 59.1001 57.9725 59.0935 57.9839C59.087 57.9953 59.0835 58.0083 59.0835 58.0215V61.3643C59.0835 61.3775 59.087 61.3905 59.0935 61.4019C59.1001 61.4134 59.1096 61.4229 59.121 61.4295C59.1324 61.4361 59.1453 61.4395 59.1584 61.4395C59.1716 61.4395 59.1845 61.4361 59.1959 61.4295L62.0819 59.758C62.0933 59.7514 62.1028 59.7419 62.1093 59.7305C62.1159 59.7191 62.1194 59.7061 62.1194 59.6929C62.1194 59.6797 62.1159 59.6668 62.1093 59.6553C62.1028 59.6439 62.0933 59.6344 62.0819 59.6278L59.1959 57.9564C59.1845 57.9498 59.1716 57.9463 59.1584 57.9463C59.1453 57.9463 59.1324 57.9498 59.121 57.9564C59.1096 57.963 59.1001 57.9725 59.0935 57.9839C59.087 57.9953 59.0835 58.0083 59.0835 58.0215V61.3643C59.0835 61.3775 59.087 61.3905 59.0935 61.4019C59.1001 61.4134 59.1096 61.4229 59.121 61.4295C59.1324 61.4361 59.1453 61.4395 59.1584 61.4395C59.1716 61.4395 59.1845 61.4361 59.1959 61.4295L62.0819 59.758C62.0933 59.7514 62.1028 59.7419 62.1093 59.7305C62.1159 59.7191 62.1194 59.7061 62.1194 59.6929C62.1194 59.6797 62.1159 59.6668 62.1093 59.6553C62.1028 59.6439 62.0933 59.6344 62.0819 59.6278Z" fill="white"/>
</g>
<defs>
<clipPath id="clip0_1_33448">
<rect width="101" height="80" fill="white" transform="translate(0.75)"/>
</clipPath>
</defs>
</svg>
