<svg width="106" height="80" viewBox="0 0 106 80" fill="none" xmlns="http://www.w3.org/2000/svg">
<path d="M52.602 70.0037C81.6277 70.0037 105.158 69.05 105.158 67.8734C105.158 66.6969 81.6277 65.7432 52.602 65.7432C23.5763 65.7432 0.0463867 66.6969 0.0463867 67.8734C0.0463867 69.05 23.5763 70.0037 52.602 70.0037Z" fill="#E6E6E6"/>
<path d="M54.3841 68.1208C68.1453 68.1208 79.3009 56.9669 79.3009 43.2079C79.3009 29.4488 68.1453 18.2949 54.3841 18.2949C40.6229 18.2949 29.4673 29.4488 29.4673 43.2079C29.4673 56.9669 40.6229 68.1208 54.3841 68.1208Z" fill="#3F3D56"/>
<path d="M54.3839 66.0586C67.0059 66.0586 77.2381 55.8281 77.2381 43.208C77.2381 30.588 67.0059 20.3574 54.3839 20.3574C41.7619 20.3574 31.5298 30.588 31.5298 43.208C31.5298 55.8281 41.7619 66.0586 54.3839 66.0586Z" fill="white"/>
<path d="M54.3013 46.3428C55.9872 46.3428 57.354 44.9762 57.354 43.2905C57.354 41.6048 55.9872 40.2383 54.3013 40.2383C52.6153 40.2383 51.2485 41.6048 51.2485 43.2905C51.2485 44.9762 52.6153 46.3428 54.3013 46.3428Z" fill="#3F3D56"/>
<path d="M54.9613 21.5126H53.6412V23.9874H54.9613V21.5126Z" fill="#3F3D56"/>
<path d="M54.9613 62.5946H53.6412V65.0694H54.9613V62.5946Z" fill="#3F3D56"/>
<path d="M34.9948 43.9509V42.631H32.5197V43.9509H34.9948Z" fill="#3F3D56"/>
<path d="M76.0827 43.9509V42.631H73.6075V43.9509H76.0827Z" fill="#3F3D56"/>
<path d="M53.4214 44.6153L54.5495 42.0361L68.6856 49.864L53.4214 44.6153Z" fill="#3F3D56"/>
<path d="M57.601 12.2734H51.1655V19.6978H57.601V12.2734Z" fill="#3F3D56"/>
<path d="M54.3835 14.3346C58.4846 14.3346 61.8091 13.4113 61.8091 12.2723C61.8091 11.1333 58.4846 10.21 54.3835 10.21C50.2825 10.21 46.958 11.1333 46.958 12.2723C46.958 13.4113 50.2825 14.3346 54.3835 14.3346Z" fill="#3F3D56"/>
</svg>
