<svg width="67" height="80" viewBox="0 0 67 80" fill="none" xmlns="http://www.w3.org/2000/svg">
<path d="M17.91 62.6586H3.54801C2.80619 62.6577 2.09499 62.3645 1.57044 61.8431C1.04589 61.3217 0.750835 60.6147 0.75 59.8774V2.78119C0.750835 2.04383 1.04589 1.3369 1.57044 0.815508C2.09499 0.294114 2.80619 0.000830082 3.54801 0H42.503L49.6329 6.32773V17.1779H49.3037V6.47424L42.3774 0.327199H3.54801C2.89346 0.327935 2.26594 0.586715 1.8031 1.04677C1.34027 1.50682 1.07992 2.13058 1.07918 2.78119V59.8774C1.07992 60.528 1.34027 61.1517 1.8031 61.6118C2.26594 62.0719 2.89346 62.3306 3.54801 62.3314H17.91V62.6586Z" fill="#CCCCCC"/>
<path d="M49.4682 6.54397H45.0243C44.2824 6.54314 43.5712 6.24986 43.0467 5.72847C42.5222 5.20707 42.2271 4.50015 42.2263 3.76279V0.163599C42.2263 0.12021 42.2436 0.0785979 42.2745 0.047917C42.3053 0.0172362 42.3472 0 42.3908 0C42.4345 0 42.4764 0.0172362 42.5072 0.047917C42.5381 0.0785979 42.5554 0.12021 42.5554 0.163599V3.76279C42.5562 4.4134 42.8165 5.03716 43.2794 5.49721C43.7422 5.95726 44.3697 6.21604 45.0243 6.21678H49.4682C49.5118 6.21678 49.5537 6.23401 49.5846 6.26469C49.6154 6.29538 49.6328 6.33699 49.6328 6.38037C49.6328 6.42376 49.6154 6.46538 49.5846 6.49606C49.5537 6.52674 49.5118 6.54397 49.4682 6.54397Z" fill="#CCCCCC"/>
<path d="M43.9611 14.8057H6.43487C6.08566 14.8057 5.75075 14.9436 5.50382 15.189C5.25689 15.4345 5.11816 15.7673 5.11816 16.1145C5.11816 16.4616 5.25689 16.7945 5.50382 17.0399C5.75075 17.2854 6.08566 17.4233 6.43487 17.4233H43.9611C44.3103 17.4233 44.6452 17.2854 44.8922 17.0399C45.1391 16.7945 45.2778 16.4616 45.2778 16.1145C45.2778 15.7673 45.1391 15.4345 44.8922 15.189C44.6452 14.9436 44.3103 14.8057 43.9611 14.8057Z" fill="#E6E6E6"/>
<path d="M25.0334 9.24341H6.43487C6.08566 9.24341 5.75075 9.3813 5.50382 9.62675C5.25689 9.8722 5.11816 10.2051 5.11816 10.5522C5.11816 10.8993 5.25689 11.2322 5.50382 11.4777C5.75075 11.7231 6.08566 11.861 6.43487 11.861H25.0334C25.3826 11.861 25.7175 11.7231 25.9645 11.4777C26.2114 11.2322 26.3501 10.8993 26.3501 10.5522C26.3501 10.2051 26.2114 9.8722 25.9645 9.62675C25.7175 9.3813 25.3826 9.24341 25.0334 9.24341Z" fill="#E6E6E6"/>
<path d="M43.9611 14.8057H6.43487C6.08566 14.8057 5.75075 14.9436 5.50382 15.189C5.25689 15.4345 5.11816 15.7673 5.11816 16.1145C5.11816 16.4616 5.25689 16.7945 5.50382 17.0399C5.75075 17.2854 6.08566 17.4233 6.43487 17.4233H43.9611C44.3103 17.4233 44.6452 17.2854 44.8922 17.0399C45.1391 16.7945 45.2778 16.4616 45.2778 16.1145C45.2778 15.7673 45.1391 15.4345 44.8922 15.189C44.6452 14.9436 44.3103 14.8057 43.9611 14.8057Z" fill="#E6E6E6"/>
<path d="M25.0334 9.24341H6.43487C6.08566 9.24341 5.75075 9.3813 5.50382 9.62675C5.25689 9.8722 5.11816 10.2051 5.11816 10.5522C5.11816 10.8993 5.25689 11.2322 5.50382 11.4777C5.75075 11.7231 6.08566 11.861 6.43487 11.861H25.0334C25.3826 11.861 25.7175 11.7231 25.9645 11.4777C26.2114 11.2322 26.3501 10.8993 26.3501 10.5522C26.3501 10.2051 26.2114 9.8722 25.9645 9.62675C25.7175 9.3813 25.3826 9.24341 25.0334 9.24341Z" fill="#E6E6E6"/>
<path d="M6.43487 25.7661C6.08566 25.7661 5.75075 25.904 5.50382 26.1495C5.25689 26.3949 5.11816 26.7278 5.11816 27.0749C5.11816 27.422 5.25689 27.7549 5.50382 28.0004C5.75075 28.2458 6.08566 28.3837 6.43487 28.3837H18.1964V25.7661H6.43487Z" fill="#E6E6E6"/>
<path d="M6.43487 20.2039C6.08566 20.2039 5.75075 20.3418 5.50382 20.5872C5.25689 20.8326 5.11816 21.1655 5.11816 21.5127C5.11816 21.8598 5.25689 22.1927 5.50382 22.4381C5.75075 22.6836 6.08566 22.8214 6.43487 22.8214H18.1964V20.2039H6.43487Z" fill="#E6E6E6"/>
<path d="M6.43487 25.7661C6.08566 25.7661 5.75075 25.904 5.50382 26.1495C5.25689 26.3949 5.11816 26.7278 5.11816 27.0749C5.11816 27.422 5.25689 27.7549 5.50382 28.0004C5.75075 28.2458 6.08566 28.3837 6.43487 28.3837H18.1964V25.7661H6.43487Z" fill="#E6E6E6"/>
<path d="M6.43487 20.2039C6.08566 20.2039 5.75075 20.3418 5.50382 20.5872C5.25689 20.8326 5.11816 21.1655 5.11816 21.5127C5.11816 21.8598 5.25689 22.1927 5.50382 22.4381C5.75075 22.6836 6.08566 22.8214 6.43487 22.8214H18.1964V20.2039H6.43487Z" fill="#E6E6E6"/>
<path d="M18.2783 53.496H7.73799C7.01799 53.4952 6.32771 53.2105 5.81859 52.7045C5.30947 52.1984 5.02309 51.5123 5.02228 50.7966V37.0542C5.02309 36.3386 5.30947 35.6524 5.81859 35.1464C6.32771 34.6403 7.01799 34.3557 7.73799 34.3549H18.2783V53.496Z" fill="#E6E6E6"/>
<path d="M19.2069 17.7504C18.7978 17.9986 18.4598 18.3471 18.2252 18.7625C17.9906 19.1779 17.8673 19.6462 17.8671 20.1226V20.5316H18.1963V20.1226C18.197 19.5816 18.3772 19.0559 18.709 18.627C19.0407 18.1981 19.5056 17.89 20.0315 17.7504H19.2069ZM59.62 17.3414H20.6651C19.9233 17.3423 19.2121 17.6356 18.6876 18.157C18.1631 18.6784 17.868 19.3853 17.8671 20.1226V77.2188C17.8682 77.9561 18.1633 78.6629 18.6878 79.1843C19.2123 79.7056 19.9234 79.999 20.6651 80H63.952C64.6937 79.999 65.4048 79.7056 65.9293 79.1843C66.4538 78.6629 66.749 77.9561 66.75 77.2188V23.6695L59.62 17.3414ZM66.4208 77.2188C66.42 77.8694 66.1597 78.4931 65.6968 78.9532C65.234 79.4132 64.6065 79.672 63.952 79.6728H20.6651C20.0106 79.672 19.3831 79.4132 18.9203 78.9532C18.4575 78.4931 18.1971 77.8694 18.1963 77.2188L18.1963 20.1226C18.197 19.5816 18.3772 19.0559 18.709 18.627C19.0407 18.1981 19.5056 17.89 20.0315 17.7504C20.2382 17.6957 20.4512 17.6682 20.6651 17.6686H59.4949L66.4208 23.8151V77.2188ZM19.2069 17.7504C18.7978 17.9986 18.4598 18.3471 18.2252 18.7625C17.9906 19.1779 17.8673 19.6462 17.8671 20.1226V20.5316H18.1963V20.1226C18.197 19.5816 18.3772 19.0559 18.709 18.627C19.0407 18.1981 19.5056 17.89 20.0315 17.7504H19.2069Z" fill="#3F3D56"/>
<path d="M66.5853 23.8854H62.1414C61.3996 23.8846 60.6884 23.5913 60.1638 23.0699C59.6393 22.5485 59.3442 21.8416 59.3434 21.1042V17.505C59.3434 17.4616 59.3607 17.42 59.3916 17.3894C59.4225 17.3587 59.4643 17.3414 59.508 17.3414C59.5516 17.3414 59.5935 17.3587 59.6244 17.3894C59.6552 17.42 59.6726 17.4616 59.6726 17.505V21.1042C59.6733 21.7548 59.9336 22.3786 60.3965 22.8386C60.8593 23.2987 61.4868 23.5575 62.1414 23.5582H66.5853C66.6289 23.5582 66.6708 23.5754 66.7017 23.6061C66.7325 23.6368 66.7499 23.6784 66.7499 23.7218C66.7499 23.7652 66.7325 23.8068 66.7017 23.8375C66.6708 23.8682 66.6289 23.8854 66.5853 23.8854Z" fill="#3F3D56"/>
<path d="M61.0782 34.7647H23.552C23.2028 34.7647 22.8679 34.6268 22.6209 34.3813C22.374 34.1359 22.2353 33.803 22.2353 33.4559C22.2353 33.1088 22.374 32.7759 22.6209 32.5304C22.8679 32.285 23.2028 32.1471 23.552 32.1471H61.0782C61.4275 32.1471 61.7624 32.285 62.0093 32.5304C62.2562 32.7759 62.395 33.1088 62.395 33.4559C62.395 33.803 62.2562 34.1359 62.0093 34.3813C61.7624 34.6268 61.4275 34.7647 61.0782 34.7647Z" fill="#CCCCCC"/>
<path d="M42.1505 29.2024H23.552C23.2028 29.2024 22.8679 29.0645 22.6209 28.8191C22.374 28.5736 22.2353 28.2407 22.2353 27.8936C22.2353 27.5465 22.374 27.2136 22.6209 26.9682C22.8679 26.7227 23.2028 26.5848 23.552 26.5848H42.1505C42.4997 26.5848 42.8347 26.7227 43.0816 26.9682C43.3285 27.2136 43.4672 27.5465 43.4672 27.8936C43.4672 28.2407 43.3285 28.5736 43.0816 28.8191C42.8347 29.0645 42.4997 29.2024 42.1505 29.2024Z" fill="#CCCCCC"/>
<path d="M61.0782 45.7251H23.552C23.2028 45.7251 22.8679 45.5872 22.6209 45.3418C22.374 45.0964 22.2353 44.7635 22.2353 44.4163C22.2353 44.0692 22.374 43.7363 22.6209 43.4909C22.8679 43.2454 23.2028 43.1075 23.552 43.1075H61.0782C61.4275 43.1075 61.7624 43.2454 62.0093 43.4909C62.2562 43.7363 62.395 44.0692 62.395 44.4163C62.395 44.7635 62.2562 45.0964 62.0093 45.3418C61.7624 45.5872 61.4275 45.7251 61.0782 45.7251Z" fill="#CCCCCC"/>
<path d="M42.1505 40.1629H23.552C23.2028 40.1629 22.8679 40.025 22.6209 39.7795C22.374 39.5341 22.2353 39.2012 22.2353 38.8541C22.2353 38.507 22.374 38.1741 22.6209 37.9286C22.8679 37.6832 23.2028 37.5453 23.552 37.5453H42.1505C42.4997 37.5453 42.8347 37.6832 43.0816 37.9286C43.3285 38.1741 43.4672 38.507 43.4672 38.8541C43.4672 39.2012 43.3285 39.5341 43.0816 39.7795C42.8347 40.025 42.4997 40.1629 42.1505 40.1629Z" fill="#CCCCCC"/>
<path d="M59.7479 70.8386H24.8551C24.1351 70.8378 23.4448 70.5532 22.9357 70.0471C22.4266 69.5411 22.1402 68.8549 22.1394 68.1392V54.3969C22.1402 53.6812 22.4266 52.9951 22.9357 52.489C23.4448 51.983 24.1351 51.6983 24.8551 51.6975H59.7479C60.4679 51.6983 61.1582 51.983 61.6673 52.489C62.1765 52.9951 62.4628 53.6812 62.4637 54.3969V68.1392C62.4628 68.8549 62.1765 69.5411 61.6674 70.0471C61.1582 70.5532 60.4679 70.8378 59.7479 70.8386Z" fill="#434352"/>
</svg>
